<?xml version="1.0" encoding="UTF-8"?>
<svg version="1.1" xmlns="http://www.w3.org/2000/svg" width="2000" height="2000">
<path d="M0 0 C660 0 1320 0 2000 0 C2000 660 2000 1320 2000 2000 C1340 2000 680 2000 0 2000 C0 1340 0 680 0 0 Z " fill="#1A1C37" transform="translate(0,0)"/>
<path d="M0 0 C2.65527344 1.25244141 2.65527344 1.25244141 5.359375 2.8515625 C6.88884766 3.74584961 6.88884766 3.74584961 8.44921875 4.65820312 C10.08310547 5.63176758 10.08310547 5.63176758 11.75 6.625 C12.90697352 7.30502178 14.06453713 7.98404047 15.22265625 8.66210938 C17.62665148 10.07067324 20.02805773 11.48350641 22.42773438 12.89941406 C27.9283488 16.14016978 33.46603409 19.31666323 39 22.5 C41.16684034 23.74969892 43.3335065 24.99969989 45.5 26.25 C47.10875 27.178125 47.10875 27.178125 48.75 28.125 C136.5 78.75 136.5 78.75 139.7512207 80.62573242 C141.91378583 81.8733474 144.07638339 83.12090616 146.23901367 84.3684082 C151.71870371 87.52943449 157.19779358 90.69149309 162.67578125 93.85546875 C164.88800671 95.13283696 167.10024616 96.41018093 169.3125 97.6875 C170.38193848 98.3052832 171.45137695 98.92306641 172.55322266 99.55957031 C177.74660106 102.55694149 182.94596248 105.54287267 188.16015625 108.50390625 C189.60878052 109.32725464 189.60878052 109.32725464 191.08666992 110.16723633 C192.89142052 111.19168236 194.69748988 112.21381008 196.50512695 113.2331543 C197.30523193 113.68730713 198.10533691 114.14145996 198.9296875 114.609375 C199.62304199 115.00092773 200.31639648 115.39248047 201.03076172 115.79589844 C201.68061035 116.19325195 202.33045898 116.59060547 203 117 C203.69069454 117.32134068 204.38138908 117.64268137 205.09301376 117.97375965 C208.25209462 121.33039483 207.53596185 125.1881561 207.48101807 129.62394714 C207.48443577 130.62289719 207.48785347 131.62184724 207.49137473 132.65106851 C207.4979878 136.01400454 207.47592047 139.37615061 207.45410156 142.73901367 C207.45297383 145.1433663 207.45360549 147.54772032 207.45587158 149.95207214 C207.45678382 155.13645824 207.4454045 160.32066416 207.42292023 165.50499535 C207.39043283 173.00067682 207.37999658 180.4962609 207.37496826 187.99200515 C207.36621046 200.152847 207.3395818 212.31358162 207.30175781 224.47436523 C207.26505023 236.28848737 207.23673236 248.1025804 207.21972656 259.91674805 C207.21867567 260.6447868 207.21762477 261.37282555 207.21654204 262.12292608 C207.21132194 265.77522738 207.2062671 269.42752888 207.20129442 273.07983053 C207.1598173 303.38663046 207.08905872 333.69330036 207 364 C206.42670708 364.31450513 205.85341415 364.62901026 205.26274872 364.95304585 C202.63770661 366.39359792 200.01318573 367.83509708 197.38867188 369.27661133 C196.48687195 369.77131172 195.58507202 370.26601212 194.65594482 370.77570343 C188.21066492 374.31698416 181.83058775 377.94467059 175.5 381.6875 C166.74162702 386.82990589 157.94857158 391.90799122 149.125 396.9375 C131.74132182 406.85083508 114.39941261 416.83475943 97.125 426.9375 C87.30855493 432.67743193 77.44534606 438.3332328 67.56738281 443.96630859 C56.45641173 450.30330558 45.37633933 456.69324386 34.30126953 463.09277344 C28.47297454 466.45992626 22.6426826 469.82361698 16.8125 473.1875 C15.73145996 473.81148682 14.65041992 474.43547363 13.53662109 475.07836914 C11.55131474 476.22400454 9.56353439 477.36536852 7.57275391 478.50146484 C6.00277608 479.41591957 4.44791156 480.35789039 2.92333984 481.34619141 C0.12262367 483.13653717 -1.49906972 484.04011881 -4.86547852 483.77050781 C-8.11447605 482.97186024 -10.41814828 481.88515868 -13.2890625 480.18359375 C-14.29855957 479.59247803 -15.30805664 479.0013623 -16.34814453 478.39233398 C-17.97018799 477.42469116 -17.97018799 477.42469116 -19.625 476.4375 C-20.77525154 475.7607327 -21.9261443 475.08505421 -23.07763672 474.41040039 C-24.8807521 473.35378798 -26.68342761 472.29649186 -28.48416138 471.23582458 C-34.41216651 467.7452378 -40.38610992 464.33761487 -46.36645508 460.93774414 C-56.63804996 455.09535566 -66.86743825 449.18292071 -77.06738281 443.21630859 C-87.59111319 437.06207011 -98.1539592 430.97620913 -108.71777344 424.89111328 C-114.14659942 421.76319852 -119.57319281 418.63141552 -125 415.5 C-127.16665583 414.24998121 -129.3333225 412.99998122 -131.5 411.75 C-138 408 -138 408 -144.5 404.25 C-145.57266113 403.63116943 -146.64532227 403.01233887 -147.75048828 402.37475586 C-149.91557071 401.12564482 -152.08060982 399.87645871 -154.24560547 398.62719727 C-159.68615706 395.48797691 -165.12747216 392.35009437 -170.5703125 389.21484375 C-181.57947155 382.87180209 -192.58056625 376.51507256 -203.5625 370.125 C-204.59842285 369.52357178 -205.6343457 368.92214355 -206.70166016 368.30249023 C-207.64702637 367.75149658 -208.59239258 367.20050293 -209.56640625 366.6328125 C-210.40115479 366.14699707 -211.23590332 365.66118164 -212.09594727 365.16064453 C-214 364 -214 364 -215 363 C-215.12696909 359.89612461 -215.18800153 356.81364765 -215.20773315 353.70835876 C-215.21775993 352.72084564 -215.22778672 351.73333252 -215.23811734 350.71589476 C-215.27041501 347.37955115 -215.29521769 344.04319574 -215.31982422 340.70678711 C-215.34080692 338.32555924 -215.36205325 335.94433368 -215.38354492 333.56311035 C-215.57147008 311.80340615 -215.6743074 290.04290685 -215.75568962 268.28256893 C-215.76677803 265.36944945 -215.77807027 262.45633085 -215.78955078 259.54321289 C-215.79239532 258.81915749 -215.79523985 258.09510208 -215.79817058 257.3491056 C-215.84562223 245.62706305 -215.94190621 233.90592364 -216.05712186 222.18437272 C-216.17441168 210.15195976 -216.24236695 198.12001589 -216.26382077 186.08704573 C-216.27721921 179.32990732 -216.31293277 172.57444915 -216.405056 165.81788445 C-216.48941084 159.45855529 -216.51251582 153.10193452 -216.48869324 146.74211884 C-216.49067285 144.40875169 -216.51492046 142.07528057 -216.56312943 139.74241066 C-216.89967738 122.58071101 -216.89967738 122.58071101 -213.75706911 118.31147885 C-210.29479291 115.17231127 -206.34667271 113.65150775 -202 112 C-199.82085048 110.78207582 -197.65772933 109.5345583 -195.51953125 108.24609375 C-193.28499315 106.97455881 -191.04927698 105.70509234 -188.8125 104.4375 C-186.34443247 103.03363973 -183.87734636 101.6280578 -181.41015625 100.22265625 C-180.48062637 99.69357666 -180.48062637 99.69357666 -179.53231812 99.15380859 C-173.25932594 95.58206813 -167.0022335 91.98294849 -160.75 88.375 C-159.67967529 87.75737793 -158.60935059 87.13975586 -157.5065918 86.50341797 C-150.36652118 82.37833278 -143.24301818 78.22549074 -136.125 74.0625 C-126.85494485 68.64088505 -117.5416835 63.29795143 -108.21154785 57.98077393 C-99.0871716 52.77954871 -89.99867226 47.51972122 -80.93310547 42.21655273 C-70.42671741 36.0726035 -59.8813613 29.99680244 -49.33496094 23.921875 C-44.76545463 21.28855482 -40.1981154 18.65149313 -35.63134766 16.01342773 C-33.40580194 14.72936016 -31.17894643 13.4475596 -28.95068359 12.16821289 C-24.4288739 9.57083692 -19.91637986 6.96894576 -15.46875 4.24609375 C-14.82389648 3.85736084 -14.17904297 3.46862793 -13.51464844 3.06811523 C-11.91384109 2.09917056 -10.32346892 1.11303767 -8.734375 0.125 C-5.27868937 -1.2967678 -3.61070131 -0.85419832 0 0 Z " fill="#45C554" transform="translate(480,758)"/>
<path d="M0 0 C0.82878662 0.44964111 1.65757324 0.89928223 2.51147461 1.36254883 C3.75562134 2.00897339 3.75562134 2.00897339 5.02490234 2.66845703 C5.90605713 3.16176514 6.78721191 3.65507324 7.69506836 4.16333008 C8.69352783 4.72149414 9.6919873 5.2796582 10.72070312 5.85473633 C11.78603271 6.45543945 12.8513623 7.05614258 13.94897461 7.67504883 C15.06135498 8.30024414 16.17373535 8.92543945 17.31982422 9.56958008 C27.20656174 15.14804783 36.97735524 20.91105271 46.73266602 26.71508789 C59.92878109 34.53861491 73.21961283 42.20326818 86.51147461 49.86254883 C95.08452823 54.80284392 103.64962025 59.75633598 112.19897461 64.73754883 C113.11743164 65.27186523 114.03588867 65.80618164 114.98217773 66.35668945 C116.76365782 67.39599244 118.53623347 68.45075477 120.29822254 69.52276993 C122.62915352 70.85736726 124.85585894 71.99886693 127.28706646 73.10354233 C137.5401063 78.03216226 137.5401063 78.03216226 139.93525124 83.77829742 C140.51844285 88.02245843 140.62330295 92.0514955 140.56347656 96.32446289 C140.59531042 97.93042466 140.63339028 99.53627282 140.67720032 101.14195251 C140.77511727 105.4844192 140.77783169 109.82194788 140.75687814 114.16528416 C140.74733329 117.80093578 140.78283269 121.43561329 140.81754941 125.07106853 C140.89804478 133.65581017 140.89931482 142.23808543 140.8515625 150.82299805 C140.80387119 159.65416297 140.8916741 168.47664113 141.04637939 177.30638528 C141.17463887 184.90982439 141.21681504 192.51051942 141.19147652 200.11499381 C141.17728457 204.64761799 141.19485384 209.17417135 141.29601479 213.70581818 C141.85565498 241.11355965 141.85565498 241.11355965 136.33493233 248.12798119 C131.15581308 252.5505762 125.47473291 255.1798123 119.08775139 257.41817188 C115.63226835 258.68483645 112.74289182 260.40676643 109.62475586 262.35083008 C107.6916428 263.45974138 105.75805462 264.56782487 103.82397461 265.67504883 C94.88413299 270.81105968 85.99459524 276.02444574 77.13647461 281.30004883 C66.75991322 287.47653768 56.31190608 293.51165888 45.81665039 299.4831543 C36.15530855 304.98277093 26.54362409 310.56395824 16.94897461 316.17895508 C15.62639648 316.94296631 15.62639648 316.94296631 14.27709961 317.72241211 C12.28390536 318.90446357 10.31792102 320.13282883 8.37084961 321.3894043 C7.32413086 322.04956543 6.27741211 322.70972656 5.19897461 323.38989258 C3.78165039 324.31209595 3.78165039 324.31209595 2.33569336 325.25292969 C-0.48852539 326.36254883 -0.48852539 326.36254883 -3.5637207 325.70532227 C-6.13541573 324.52466094 -8.55387718 323.31498986 -10.97290039 321.85083008 C-11.81191895 321.34817627 -12.6509375 320.84552246 -13.51538086 320.32763672 C-14.41401855 319.78228271 -15.31265625 319.23692871 -16.23852539 318.67504883 C-18.21431764 317.4914704 -20.19091387 316.3092333 -22.16821289 315.12817383 C-23.71847168 314.20101562 -23.71847168 314.20101562 -25.30004883 313.25512695 C-30.62523997 310.09426312 -35.99438643 307.01047435 -41.36352539 303.92504883 C-54.75780622 296.21715005 -68.10564492 288.43122253 -81.44750977 280.63305664 C-92.98671634 273.88980903 -104.53716719 267.16686128 -116.11352539 260.48754883 C-117.1433252 259.89337158 -118.173125 259.29919434 -119.23413086 258.68701172 C-124.77528353 255.49327019 -130.3230461 252.31132326 -135.87670898 249.1394043 C-136.83627754 248.59122292 -136.83627754 248.59122292 -137.81523132 248.03196716 C-139.3729537 247.14208699 -140.93073349 246.2523073 -142.48852539 245.36254883 C-142.7923757 224.11822794 -143.02153135 202.87426585 -143.16208363 181.62821198 C-143.22908374 171.76287652 -143.3204009 161.89889202 -143.46923828 152.03442383 C-143.59892396 143.43516051 -143.68270652 134.83687547 -143.71167582 126.23666143 C-143.72860869 121.6833823 -143.76830832 117.13290139 -143.86301613 112.58052063 C-143.95151431 108.29172536 -143.97843345 104.00686863 -143.95892525 99.71724701 C-143.96249131 98.14653318 -143.98822206 96.57568287 -144.03819656 95.00576019 C-144.18281582 90.22672498 -144.0964661 85.93225875 -142.48852539 81.36254883 C-138.53188042 77.62000602 -134.45574263 75.61314928 -129.48852539 73.36254883 C-127.58393227 72.26709411 -125.68947307 71.15352059 -123.81274414 70.01098633 C-121.93477573 68.91822717 -120.05584309 67.82712367 -118.17602539 66.73754883 C-116.07312281 65.51495794 -113.97025932 64.29229979 -111.86743164 63.06958008 C-110.8079834 62.45421387 -109.74853516 61.83884766 -108.65698242 61.20483398 C-105.60767771 59.43182941 -102.56115565 57.65416336 -99.51586914 55.87426758 C-88.10007406 49.2022205 -76.66151706 42.5711933 -65.2043457 35.97045898 C-54.96101747 30.06578739 -44.74766355 24.11047867 -34.53979492 18.14477539 C-31.30371533 16.25460248 -28.06621869 14.36687559 -24.82836914 12.47973633 C-23.7360498 11.84302002 -22.64373047 11.20630371 -21.51831055 10.55029297 C-19.42564212 9.33054899 -17.33287404 8.11097596 -15.23999023 6.89160156 C-14.29720215 6.34189697 -13.35441406 5.79219238 -12.38305664 5.22583008 C-11.55652588 4.74412354 -10.72999512 4.26241699 -9.87841797 3.76611328 C-7.4204849 2.37356122 -7.4204849 2.37356122 -4.99511719 0.55859375 C-2.48852539 -0.63745117 -2.48852539 -0.63745117 0 0 Z " fill="#1A1C37" transform="translate(477.488525390625,836.637451171875)"/>
<path d="M0 0 C12.87420005 10.79576336 20.73645841 23.05040352 24.9375 39.3125 C25.114021 39.92593262 25.29054199 40.53936523 25.47241211 41.17138672 C26.41563268 45.51366724 26.12219937 50.01250612 26.125 54.4375 C26.13724609 55.43265625 26.14949219 56.4278125 26.16210938 57.453125 C26.19956865 76.58232723 18.62927511 92.93390351 5.57421875 106.76953125 C-1.33733994 113.43534563 -9.14639615 117.85497677 -18.0625 121.3125 C-19.2690625 121.79396484 -19.2690625 121.79396484 -20.5 122.28515625 C-33.41690825 126.62443011 -49.71134448 125.92529728 -62.0625 120.3125 C-65.6925 118.3325 -69.3225 116.3525 -73.0625 114.3125 C-73.3925 138.0725 -73.7225 161.8325 -74.0625 186.3125 C-86.6025 186.3125 -99.1425 186.3125 -112.0625 186.3125 C-112.0625 121.6325 -112.0625 56.9525 -112.0625 -9.6875 C-101.1725 -9.6875 -90.2825 -9.6875 -79.0625 -9.6875 C-78.5675 -4.2425 -78.5675 -4.2425 -78.0625 1.3125 C-76.639375 0.260625 -75.21625 -0.79125 -73.75 -1.875 C-51.39686777 -17.42774271 -21.66638818 -16.49034445 0 0 Z " fill="#45C654" transform="translate(1194.0625,911.6875)"/>
<path d="M0 0 C2.51992111 1.94793902 5.01857247 3.89747872 7.2734375 6.15234375 C7.6034375 2.19234375 7.9334375 -1.76765625 8.2734375 -5.84765625 C19.1634375 -5.84765625 30.0534375 -5.84765625 41.2734375 -5.84765625 C41.2734375 37.38234375 41.2734375 80.61234375 41.2734375 125.15234375 C30.3834375 125.15234375 19.4934375 125.15234375 8.2734375 125.15234375 C7.7784375 119.21234375 7.7784375 119.21234375 7.2734375 113.15234375 C6.3659375 114.01859375 5.4584375 114.88484375 4.5234375 115.77734375 C-8.33769159 126.72353611 -24.15961772 129.29348772 -40.49658203 128.359375 C-56.37411503 126.88530581 -70.08880169 117.46179871 -80.7265625 106.15234375 C-95.7271973 87.98643738 -98.31045958 68.04400798 -96.7265625 45.15234375 C-94.08727824 27.67846176 -82.07795682 12.44349937 -68.38671875 1.96875 C-48.50321952 -11.60808868 -20.51634872 -13.90291253 0 0 Z " fill="#45C654" transform="translate(1319.7265625,907.84765625)"/>
<path d="M0 0 C2.16208305 1.5734942 4.0520044 3.16331844 6 5 C6 1.04 6 -2.92 6 -7 C16.89 -7 27.78 -7 39 -7 C39 35.9 39 78.8 39 123 C28.44 123 17.88 123 7 123 C7 119.04 7 115.08 7 111 C5.576875 112.216875 4.15375 113.43375 2.6875 114.6875 C-11.14901764 125.70222431 -27.71327537 128.63253037 -45 127 C-61.30745538 123.97122812 -76.08882068 114.07432212 -86.08203125 100.94921875 C-97.43034367 83.49916604 -102.02556351 64.15298121 -98.25 43.4375 C-93.74254763 25.53377309 -84.03908334 9.23237862 -68.16015625 -0.79296875 C-65.47469854 -2.2848897 -62.7700694 -3.67276427 -60 -5 C-59.04287109 -5.47566406 -59.04287109 -5.47566406 -58.06640625 -5.9609375 C-39.19820321 -14.76319388 -16.99457572 -10.56669538 0 0 Z " fill="#45C654" transform="translate(1693,909)"/>
<path d="M0 0 C2.49702792 3.05560349 4.00931485 6.05052048 5.50390625 9.6953125 C5.98738525 10.86320313 6.47086426 12.03109375 6.96899414 13.234375 C7.22681671 13.86408203 7.48463928 14.49378906 7.75027466 15.14257812 C9.18513869 18.64469224 10.64067072 22.13822622 12.09375 25.6328125 C12.40599014 26.38492004 12.71823029 27.13702759 13.03993225 27.91192627 C16.8079751 36.97243246 20.68715773 45.98500896 24.5625 55 C26.11257612 58.60911888 27.66192645 62.21854888 29.2109375 65.828125 C29.60344696 66.74272491 29.99595642 67.65732483 30.40036011 68.59963989 C34.85038051 78.97416642 39.27002019 89.36158566 43.6875 99.75 C44.51293426 101.69075742 45.33837374 103.63151261 46.16381836 105.57226562 C47.86994387 109.58391967 49.5758941 113.5956482 51.28173828 117.60742188 C55.72969314 128.0678898 60.1784018 138.52803548 64.6300354 148.98693848 C65.60708434 151.28293469 66.58380336 153.57907133 67.56015015 155.87536621 C68.93769049 159.11518875 70.31622633 162.35458519 71.6953125 165.59375 C72.13339737 166.62332825 72.57148224 167.65290649 73.02284241 168.71368408 C75.29028129 174.03142219 77.57975285 179.33848227 79.90136719 184.6328125 C80.36775604 185.69745728 80.8341449 186.76210205 81.31466675 187.85900879 C82.20575761 189.88905997 83.10008384 191.91769492 83.99807739 193.94470215 C84.39300385 194.84402466 84.7879303 195.74334717 85.19482422 196.66992188 C85.54455292 197.46072144 85.89428162 198.251521 86.25460815 199.06628418 C87 201 87 201 87 203 C73.8 203 60.6 203 47 203 C42.38 191.78 37.76 180.56 33 169 C-0.165 168.505 -0.165 168.505 -34 168 C-34.99 170.97 -35.98 173.94 -37 177 C-37.87164157 179.20014246 -38.76964389 181.39010745 -39.69921875 183.56640625 C-40.13838623 184.59967041 -40.57755371 185.63293457 -41.0300293 186.69750977 C-41.85047729 188.61067993 -41.85047729 188.61067993 -42.6875 190.5625 C-44.440625 194.666875 -46.19375 198.77125 -48 203 C-60.54 203 -73.08 203 -86 203 C-82.62528707 192.8758612 -82.62528707 192.8758612 -80.82128906 188.69458008 C-80.41433304 187.74622787 -80.00737701 186.79787567 -79.58808899 185.82078552 C-79.15167587 184.81387161 -78.71526276 183.8069577 -78.265625 182.76953125 C-77.80000656 181.68684464 -77.33438812 180.60415802 -76.85466003 179.48866272 C-75.84917654 177.15165259 -74.84205694 174.81534583 -73.83346558 172.47967529 C-72.22037545 168.74389199 -70.61143609 165.00634925 -69.00415039 161.26806641 C-68.73170659 160.63443932 -68.45926279 160.00081223 -68.17856312 159.34798431 C-67.62381345 158.05777841 -67.06907802 156.76756638 -66.51435661 155.47734833 C-65.67108808 153.51643035 -64.8273622 151.55570969 -63.98353577 149.59503174 C-58.43575061 136.70216246 -52.93250934 123.79044331 -47.4375 110.875 C-46.4927925 108.65550254 -45.54804958 106.43602015 -44.60327148 104.21655273 C-42.70429474 99.7551711 -40.80563713 95.29365383 -38.90722656 90.83203125 C-14.6138016 33.73929339 -14.6138016 33.73929339 -5.625 12.75 C-5.14909424 11.63802246 -4.67318848 10.52604492 -4.18286133 9.38037109 C-3.55480591 7.91591553 -3.55480591 7.91591553 -2.9140625 6.421875 C-2.3873999 5.19355957 -2.3873999 5.19355957 -1.85009766 3.94042969 C-1.26782389 2.6113338 -0.64892813 1.29785627 0 0 Z " fill="#45C654" transform="translate(992,830)"/>
<path d="M0 0 C0.72703125 0.61617187 1.4540625 1.23234375 2.203125 1.8671875 C2.90953125 2.46273437 3.6159375 3.05828125 4.34375 3.671875 C14.66258699 13.16362964 20.79540395 26.57429422 21.54797363 40.54852295 C21.71258109 45.9340861 21.65429749 51.31626506 21.59375 56.703125 C21.58627234 58.67851178 21.58058664 60.65390607 21.57659912 62.62930298 C21.56146269 67.78158729 21.52228689 72.93340711 21.4777832 78.08551025 C21.42929913 84.29231165 21.41123929 90.49926997 21.38796997 96.70620728 C21.34942656 106.09352188 21.27268967 115.4798211 21.203125 124.8671875 C8.663125 124.8671875 -3.876875 124.8671875 -16.796875 124.8671875 C-16.79945312 119.15921875 -16.80203125 113.45125 -16.8046875 107.5703125 C-16.81965186 103.93351402 -16.83637606 100.29689121 -16.859375 96.66015625 C-16.89563835 90.89978821 -16.92571966 85.13989306 -16.91699219 79.37939453 C-16.91035845 74.73003215 -16.9331118 70.08162228 -16.97542953 65.43245697 C-16.98648925 63.66727849 -16.98732601 61.90200257 -16.97729874 60.13681793 C-16.92125348 48.81000582 -17.5382853 39.16357907 -25.30545044 30.10845947 C-31.13780041 24.76552996 -38.08240606 24.42232186 -45.6015625 24.55078125 C-51.46296407 25.13118899 -55.07420575 27.45773084 -59.546875 31.1171875 C-64.49305634 37.16252024 -66.394959 42.6414486 -66.34277344 50.39453125 C-66.35311111 51.20524582 -66.36344879 52.01596039 -66.37409973 52.85124207 C-66.4033473 55.50259764 -66.40502303 58.15318385 -66.40625 60.8046875 C-66.42124389 62.65414876 -66.43797356 64.5035967 -66.45635986 66.35302734 C-66.49990999 71.19940838 -66.52000505 76.04560881 -66.53509521 80.89215088 C-66.55816516 86.71856834 -66.61058059 92.5447879 -66.65803528 98.37104797 C-66.72670789 107.20314595 -66.75827137 116.0346765 -66.796875 124.8671875 C-79.336875 124.8671875 -91.876875 124.8671875 -104.796875 124.8671875 C-104.796875 81.6371875 -104.796875 38.4071875 -104.796875 -6.1328125 C-93.576875 -6.1328125 -82.356875 -6.1328125 -70.796875 -6.1328125 C-70.301875 -0.1928125 -70.301875 -0.1928125 -69.796875 5.8671875 C-68.559375 4.6709375 -67.321875 3.4746875 -66.046875 2.2421875 C-47.68242856 -13.99221343 -19.4665768 -15.01891521 0 0 Z " fill="#45C654" transform="translate(1566.796875,908.1328125)"/>
<path d="M0 0 C1.14411181 4.2162498 2.2833069 8.43378778 3.41796875 12.65258789 C3.80464039 14.08752245 4.19265212 15.5220966 4.58203125 16.95629883 C5.1415532 19.01810868 5.69623959 21.08116756 6.25 23.14453125 C6.75273438 25.00621948 6.75273438 25.00621948 7.265625 26.90551758 C8 30 8 30 8 33 C6.36804687 32.91298828 6.36804687 32.91298828 4.703125 32.82421875 C-6.86747419 32.39235185 -15.90555427 33.7865417 -25.375 41.0625 C-31.52189664 46.8885774 -35.73641888 55.70824494 -36.15821838 64.17645264 C-36.17376266 65.42887756 -36.18930695 66.68130249 -36.20532227 67.97167969 C-36.21522186 68.6647673 -36.22512146 69.35785492 -36.23532104 70.07194519 C-36.26682419 72.35522078 -36.29164902 74.63851714 -36.31640625 76.921875 C-36.33698545 78.508001 -36.35798218 80.09412164 -36.37937927 81.68023682 C-36.43450021 85.84930061 -36.48395337 90.01841308 -36.53222656 94.18756104 C-36.59136044 99.19283863 -36.65753339 104.19802752 -36.72252655 109.20323181 C-36.82041051 116.80210023 -36.90935234 124.40102628 -37 132 C-49.54 132 -62.08 132 -75 132 C-75 88.77 -75 45.54 -75 1 C-63.78 1 -52.56 1 -41 1 C-40.67 7.6 -40.34 14.2 -40 21 C-38.02 18.36 -36.04 15.72 -34 13 C-31.21875 10.57421875 -31.21875 10.57421875 -28.5 8.6875 C-27.15421875 7.73423828 -27.15421875 7.73423828 -25.78125 6.76171875 C-21.59245285 4.10842168 -17.49347079 1.87125666 -12.625 0.8125 C-11.93664063 0.65394531 -11.24828125 0.49539063 -10.5390625 0.33203125 C-7.00610739 -0.12997057 -3.56253234 -0.04875044 0 0 Z " fill="#45C554" transform="translate(1451,901)"/>
<path d="M0 0 C3.44523807 27.85824319 3.44523807 27.85824319 -1.74023438 35.59716797 C-6.67334354 39.90880842 -12.64742457 42.20505303 -18.68408203 44.58935547 C-24.529429 47.07605955 -29.86815789 50.43550774 -35.3125 53.6875 C-37.52256772 54.96470309 -39.73475911 56.23823952 -41.94921875 57.5078125 C-46.85564587 60.33514208 -51.74810597 63.18456893 -56.625 66.0625 C-72.70065974 75.54899702 -88.84270123 84.9193368 -105.02539062 94.22192383 C-110.88630438 97.59952649 -116.72556131 101.01037385 -122.5390625 104.46875 C-123.16058701 104.83835846 -123.78211151 105.20796692 -124.42247009 105.58877563 C-127.43729837 107.38299358 -130.44943734 109.18155622 -133.45825195 110.98583984 C-134.53292725 111.62730957 -135.60760254 112.2687793 -136.71484375 112.9296875 C-137.66480225 113.49929199 -138.61476074 114.06889648 -139.59350586 114.65576172 C-142 116 -142 116 -145 117 C-147.37255859 115.96777344 -147.37255859 115.96777344 -150.1484375 114.359375 C-151.15390625 113.78316406 -152.159375 113.20695313 -153.1953125 112.61328125 C-154.24460937 111.99839844 -155.29390625 111.38351562 -156.375 110.75 C-157.93734375 109.85087891 -157.93734375 109.85087891 -159.53125 108.93359375 C-162.3615914 107.30126131 -165.18471077 105.65814215 -168 104 C-168.93666504 103.48083008 -169.87333008 102.96166016 -170.83837891 102.42675781 C-171.55171387 101.95592773 -172.26504883 101.48509766 -173 101 C-173 100.34 -173 99.68 -173 99 C-172.14341797 98.51926025 -172.14341797 98.51926025 -171.26953125 98.02880859 C-159.23307472 91.26667374 -147.25006938 84.42357766 -135.33789062 77.44482422 C-127.58813027 72.91084063 -119.80126989 68.44444303 -112 64 C-103.3058984 59.04636501 -94.63497112 54.05630662 -86 49 C-76.77433102 43.59780346 -67.50477684 38.27611932 -58.21603394 32.98352051 C-49.97134178 28.28455379 -41.75320848 23.54264157 -33.5625 18.75 C-25.74625991 14.17829845 -17.91788437 9.6291755 -10.0625 5.125 C-8.71103882 4.34721191 -8.71103882 4.34721191 -7.33227539 3.55371094 C-6.51235107 3.08481445 -5.69242676 2.61591797 -4.84765625 2.1328125 C-4.12586182 1.71918457 -3.40406738 1.30555664 -2.66040039 0.87939453 C-1 0 -1 0 0 0 Z " fill="#1A1D37" transform="translate(467,785)"/>
<path d="M0 0 C1.83663347 0.94451621 3.64650115 1.94246338 5.4296875 2.984375 C6.45964844 3.5825 7.48960937 4.180625 8.55078125 4.796875 C9.64777344 5.44140625 10.74476563 6.0859375 11.875 6.75 C13.03746744 7.42758622 14.20023297 8.10466127 15.36328125 8.78125 C18.3414967 10.51544739 21.31598625 12.25592563 24.28942871 13.99829102 C26.90197118 15.5281935 29.51741191 17.05311506 32.1328125 18.578125 C35.0746486 20.29358653 38.01622329 22.00947944 40.95654297 23.72753906 C48.28957239 28.01084503 55.64118572 32.26117001 63 36.5 C74.35440808 43.04140159 85.67930766 49.63206812 96.99267578 56.24414062 C101.14428751 58.66810487 105.29890821 61.08681771 109.45849609 63.49707031 C111.50882258 64.69623877 113.54982606 65.91150869 115.58056641 67.14355469 C120.570375 70.15227508 125.20586051 72.72529332 130.84741211 74.26757812 C134.21402047 75.90181696 136.77565604 77.97629389 139 81 C139.64263145 83.90716949 139.9106313 85.9902124 139.90234375 88.890625 C139.93141563 89.99264503 139.93141563 89.99264503 139.96107483 91.1169281 C140.09762927 98.76035754 139.62789667 106.38602834 139 114 C124.14903188 106.69147316 124.14903188 106.69147316 117.25 102.5 C115.80669256 101.63814459 114.36262956 100.77755369 112.91796875 99.91796875 C112.1398584 99.45438965 111.36174805 98.99081055 110.56005859 98.51318359 C105.58450931 95.57226671 100.57129104 92.69630438 95.5625 89.8125 C94.45616211 89.17505859 93.34982422 88.53761719 92.20996094 87.88085938 C89.93844323 86.57220371 87.66679503 85.26377451 85.39501953 83.95556641 C79.9283002 80.80667946 74.46425113 77.65316736 69 74.5 C66.83334689 73.2499765 64.66668021 71.99997653 62.5 70.75 C49.5 63.25 36.5 55.75 23.5 48.25 C22.42637207 47.63060547 21.35274414 47.01121094 20.24658203 46.37304688 C18.09128689 45.1295949 15.93601327 43.88610564 13.78076172 42.64257812 C8.77662326 39.75537125 3.7722948 36.8684957 -1.23284912 33.98303223 C-2.98341241 32.97380896 -4.73390411 31.96446164 -6.484375 30.95507812 C-8.66392165 29.6983234 -10.84359832 28.44179414 -13.0234375 27.18554688 C-20.02861283 23.14583558 -27.01858507 19.0806316 -34 15 C-28.98718325 11.11842019 -23.55192498 7.94946264 -18.125 4.6875 C-17.04863281 4.01654297 -15.97226562 3.34558594 -14.86328125 2.65429688 C-13.29513672 1.7174707 -13.29513672 1.7174707 -11.6953125 0.76171875 C-10.2724292 -0.1051355 -10.2724292 -0.1051355 -8.82080078 -0.98950195 C-5.08829396 -2.32660129 -3.56136421 -1.62243164 0 0 Z " fill="#1A1D37" transform="translate(328,1100)"/>
<path d="M0 0 C10.52273583 4.20909433 20.11159849 10.46249515 30 16 C30 68.8 30 121.6 30 176 C3 191 3 191 0 192 C0 128.64 0 65.28 0 0 Z " fill="#1A1E37" transform="translate(285,904)"/>
<path d="M0 0 C15.68886454 8.54868636 31.24538832 17.26803076 46.6640625 26.296875 C53.05281992 30.03634589 59.46116076 33.74125034 65.875 37.4375 C66.95458984 38.05971436 68.03417969 38.68192871 69.14648438 39.32299805 C71.3368252 40.58511517 73.52725502 41.84707785 75.71777344 43.10888672 C81.14659942 46.23680148 86.57319281 49.36858448 92 52.5 C94.16665583 53.75001879 96.3333225 55.00001878 98.5 56.25 C102.83333333 58.75 107.16666667 61.25 111.5 63.75 C112.57354736 64.36931396 113.64709473 64.98862793 114.75317383 65.62670898 C116.90940213 66.87076792 119.06549049 68.11506942 121.22143555 69.35961914 C126.21447507 72.24154067 131.2087388 75.1212475 136.20825195 77.9919281 C159.82166049 91.55097112 159.82166049 91.55097112 170 98 C167.57606974 100.69213761 164.95911886 102.32117697 161.81640625 104.1015625 C160.80642578 104.67390625 159.79644531 105.24625 158.75585938 105.8359375 C157.17514648 106.72152344 157.17514648 106.72152344 155.5625 107.625 C154.51255859 108.223125 153.46261719 108.82125 152.38085938 109.4375 C142.95671147 114.7472175 142.95671147 114.7472175 140 115 C137.72363281 114.05053711 137.72363281 114.05053711 135.203125 112.52734375 C133.78410889 111.68345093 133.78410889 111.68345093 132.33642578 110.82250977 C131.31790527 110.20045654 130.29938477 109.57840332 129.25 108.9375 C127.06528269 107.63251358 124.88038187 106.32783435 122.6953125 105.0234375 C121.57930664 104.35151367 120.46330078 103.67958984 119.31347656 102.98730469 C114.27715424 99.96669876 109.2016769 97.01459691 104.125 94.0625 C103.14176758 93.48878662 102.15853516 92.91507324 101.14550781 92.32397461 C93.77735623 88.02548812 86.39140302 83.75835366 79 79.5 C67.64282147 72.9568738 56.3148581 66.36494884 44.99853516 59.75146484 C40.88175022 57.34682267 36.76245222 54.94650053 32.64331055 52.54589844 C27.76077382 49.69971885 22.88005726 46.85042837 18 44 C16.67162109 43.22438721 16.67162109 43.22438721 15.31640625 42.43310547 C12.89737773 41.01970429 10.47967007 39.6040765 8.0625 38.1875 C7.35230713 37.77274414 6.64211426 37.35798828 5.91040039 36.93066406 C1.11541497 34.11541497 1.11541497 34.11541497 0 33 C-0.08843793 30.55169574 -0.11528752 28.13179401 -0.09765625 25.68359375 C-0.0962413 24.95253922 -0.09482635 24.22148468 -0.09336853 23.46827698 C-0.08775408 21.12464368 -0.07519922 18.78110461 -0.0625 16.4375 C-0.05748686 14.85221492 -0.05292363 13.26692834 -0.04882812 11.68164062 C-0.03777997 7.7877239 -0.02050572 3.89387795 0 0 Z " fill="#1A1D37" transform="translate(487,786)"/>
<path d="M0 0 C0 64.02 0 128.04 0 194 C-4.43715992 192.52094669 -7.47767265 191.31626711 -11.36328125 188.99609375 C-12.81637695 188.13274414 -12.81637695 188.13274414 -14.29882812 187.25195312 C-15.29333984 186.65318359 -16.28785156 186.05441406 -17.3125 185.4375 C-18.83327148 184.53354492 -18.83327148 184.53354492 -20.38476562 183.61132812 C-27.83465272 179.16534728 -27.83465272 179.16534728 -29 178 C-29.09685318 175.91172679 -29.12186882 173.82011638 -29.12025452 171.729599 C-29.12110894 171.06720909 -29.12196337 170.40481918 -29.12284368 169.72235686 C-29.12450033 167.4866713 -29.11897414 165.25105958 -29.11352539 163.01538086 C-29.11324353 161.41919456 -29.11340123 159.82300813 -29.1139679 158.2268219 C-29.11425592 153.87990105 -29.10835835 149.53300756 -29.10139394 145.18609309 C-29.09516128 140.64836053 -29.09455667 136.11062741 -29.09336853 131.57289124 C-29.09025495 122.9739216 -29.08204122 114.37496461 -29.07201904 105.77600056 C-29.06085872 95.98898272 -29.05534766 86.20196429 -29.05032361 76.41494167 C-29.03985862 56.27662071 -29.02225868 36.13831115 -29 16 C-25.03224148 13.71862417 -21.06290034 11.44003694 -17.09204102 9.1640625 C-15.74036063 8.3887934 -14.38912233 7.61275302 -13.03833008 6.8359375 C-11.10091965 5.72194427 -9.16195603 4.61070004 -7.22265625 3.5 C-6.31169945 2.9750293 -6.31169945 2.9750293 -5.38233948 2.43945312 C-1.11387171 0 -1.11387171 0 0 0 Z " fill="#1A1C37" transform="translate(666,903)"/>
<path d="M0 0 C1.97780147 1.00628993 3.92844412 2.06661886 5.859375 3.16015625 C6.97441406 3.78857422 8.08945312 4.41699219 9.23828125 5.06445312 C10.40891243 5.73036633 11.57948461 6.39638327 12.75 7.0625 C13.93595253 7.73285619 15.12214793 8.40278289 16.30859375 9.07226562 C19.20814787 10.71063157 22.10514351 12.35335242 25 14 C25 14.99 25 15.98 25 17 C24.36835937 17.35078613 23.73671875 17.70157227 23.0859375 18.06298828 C9.33297865 25.70985139 -4.33369051 33.48090039 -17.91015625 41.4375 C-24.21570419 45.1321331 -30.54294436 48.78852681 -36.875 52.4375 C-37.95515381 53.06003662 -39.03530762 53.68257324 -40.14819336 54.32397461 C-42.33796334 55.58576826 -44.52782355 56.84740534 -46.71777344 58.10888672 C-52.14659942 61.23680148 -57.57319281 64.36858448 -63 67.5 C-65.16665583 68.75001879 -67.3333225 70.00001878 -69.5 71.25 C-70.5725 71.86875 -71.645 72.4875 -72.75 73.125 C-76 75 -79.25 76.875 -82.5 78.75 C-83.5734668 79.36931396 -84.64693359 79.98862793 -85.75292969 80.62670898 C-87.90980903 81.87104998 -90.06670992 83.11535364 -92.22363281 84.35961914 C-97.7902267 87.57088902 -103.35640288 90.78288013 -108.921875 93.99609375 C-114.34960383 97.12959221 -119.77848732 100.26107913 -125.20849609 103.390625 C-126.96442369 104.40296318 -128.72000799 105.4158973 -130.47509766 106.4296875 C-132.50308696 107.60096113 -134.53249124 108.76973124 -136.5625 109.9375 C-137.61566406 110.54464844 -138.66882813 111.15179687 -139.75390625 111.77734375 C-142 113 -142 113 -143 113 C-143.68996475 104.63338127 -144.12239611 96.28331719 -143.89453125 87.88671875 C-143.89549301 87.18305679 -143.89645477 86.47939484 -143.89744568 85.75440979 C-143.73181213 81.8242488 -142.98731905 79.53151263 -140.26611328 76.79394531 C-137.65414901 74.78249327 -136.06555974 73.63492896 -132.97265625 72.78515625 C-126.66410945 70.70046887 -121.24150167 67.20587567 -115.5625 63.8125 C-113.29784645 62.50387011 -111.03089499 61.19920922 -108.76171875 59.8984375 C-102.45378094 56.26585775 -96.16087631 52.60809982 -89.875 48.9375 C-88.89200928 48.36354492 -87.90901855 47.78958984 -86.89624023 47.19824219 C-83.93053409 45.46599521 -80.9651948 43.73312211 -78 42 C-64.60963099 34.17348399 -51.21264123 26.35964911 -37.75976562 18.64086914 C-32.19742011 15.44470244 -26.66279985 12.21083251 -21.1640625 8.90625 C-19.51664063 7.92301758 -19.51664063 7.92301758 -17.8359375 6.91992188 C-15.73861758 5.66586745 -13.64715808 4.4019449 -11.5625 3.12695312 C-10.15871094 2.29067383 -10.15871094 2.29067383 -8.7265625 1.4375 C-7.49800537 0.69306641 -7.49800537 0.69306641 -6.24462891 -0.06640625 C-3.51743563 -1.20070983 -2.70589628 -1.11049575 0 0 Z " fill="#1A1D37" transform="translate(630,1100)"/>
<path d="M0 0 C6.57634602 5.02725118 12.24721205 13.44104862 13.73046875 21.640625 C14.90632297 33.01434217 13.25820649 42.72618868 6.3203125 52.09375 C0.09460712 59.30490223 -8.02455195 64.12843327 -17.61328125 64.93359375 C-28.84001851 65.32287035 -37.3989099 61.60481182 -45.77734375 54.1953125 C-53.1503364 46.46404144 -55.77379879 36.87765271 -55.578125 26.44946289 C-55.28272132 20.78140485 -54.11514568 16.46675054 -51.0546875 11.71875 C-50.63058594 11.03554688 -50.20648437 10.35234375 -49.76953125 9.6484375 C-45.13547515 2.85870627 -38.36528882 -3.3227299 -30.40234375 -5.83984375 C-19.1397309 -7.95743984 -9.66106085 -6.02438775 0 0 Z " fill="#1A1D37" transform="translate(1684.0546875,938.28125)"/>
<path d="M0 0 C9.31902728 4.67407462 14.90488993 11.67874757 18.88696289 21.28393555 C21.53181384 29.78306031 20.72614819 40.98146026 17 48.94140625 C11.31070144 58.49034632 4.42204481 63.59158132 -5.75 67.50390625 C-14.85255359 69.32441697 -23.41336412 69.1259788 -31.5 64.25390625 C-40.06162398 57.9136766 -45.15083727 51.30139443 -48.5 41.25390625 C-49.52314375 28.62649926 -48.75879687 19.23788431 -40.671875 8.921875 C-30.00773506 -2.76099376 -14.57636849 -6.08054906 0 0 Z " fill="#1A1D37" transform="translate(1306.5,934.74609375)"/>
<path d="M0 0 C7.45405099 5.16940542 14.18928131 12.37187539 16.6328125 21.31640625 C18.18750939 32.67892497 17.92047987 43.03018707 11.15234375 52.6171875 C5.227577 59.86454283 -2.64217931 65.2786005 -12 67 C-22.91457035 67.9762299 -31.60004526 65.64589804 -40.18359375 58.76171875 C-47.27017229 51.88849956 -51.03921732 43.61968721 -51.3515625 33.83178711 C-51.46484999 22.86296166 -49.90860716 14.14072561 -42 6 C-29.31418854 -4.60338345 -15.33364841 -7.68754535 0 0 Z " fill="#1A1D37" transform="translate(1168,936)"/>
<path d="M0 0 C2.64 0 5.28 0 8 0 C8 23.43 8 46.86 8 71 C5.69 71 3.38 71 1 71 C1 69.35 1 67.7 1 66 C0.45730469 66.34933594 -0.08539062 66.69867187 -0.64453125 67.05859375 C-1.35996094 67.51363281 -2.07539062 67.96867187 -2.8125 68.4375 C-3.52019531 68.88996094 -4.22789063 69.34242187 -4.95703125 69.80859375 C-9.75998977 72.60955426 -14.59831807 72.55463698 -20 72 C-26.62950824 70.14137001 -31.16305415 65.56875655 -35 60 C-37.94062257 54.00112996 -38.09883788 47.1171647 -36.3828125 40.6875 C-33.60244623 34.38861711 -28.42230751 30.07139665 -22.625 26.5625 C-13.4631731 24.59925138 -8.84887612 26.57556194 0 31 C0 20.77 0 10.54 0 0 Z " fill="#44C354" transform="translate(1321,1138)"/>
<path d="M0 0 C2.64 0 5.28 0 8 0 C8 23.43 8 46.86 8 71 C5.69 71 3.38 71 1 71 C0.67 69.68 0.34 68.36 0 67 C-0.60585937 67.3609375 -1.21171875 67.721875 -1.8359375 68.09375 C-7.99906304 71.50717338 -12.95333366 73.22450268 -20 72 C-26.93604954 69.90190672 -31.57928356 65.39382871 -35.03515625 59.12109375 C-37.57725842 53.26834689 -38.14432507 46.99434224 -36.37890625 40.83203125 C-33.5958124 34.43710005 -28.50255409 30.11996695 -22.625 26.5625 C-13.87220589 24.68690126 -9.52988262 26.20894106 -1 30 C-0.67 20.1 -0.34 10.2 0 0 Z " fill="#44C153" transform="translate(1070,1138)"/>
<path d="M0 0 C0.495 0.495 0.495 0.495 1 1 C1.33 -0.65 1.66 -2.3 2 -4 C4.64 -4 7.28 -4 10 -4 C10 10.85 10 25.7 10 41 C7.36 41 4.72 41 2 41 C1.505 39.02 1.505 39.02 1 37 C0.09121094 37.54140625 0.09121094 37.54140625 -0.8359375 38.09375 C-6.95147668 41.48081785 -11.99982154 43.38220084 -19 42 C-25.75501011 39.46149302 -30.64514203 35.58577606 -33.96484375 29.12109375 C-36.78461195 22.48099444 -36.80363341 16.70506304 -34.5 9.9375 C-31.79266104 3.68460681 -27.35570923 0.03108717 -21.625 -3.4375 C-13.57116014 -5.16332283 -7.14509637 -4.05268564 0 0 Z " fill="#43BF53" transform="translate(1206,1168)"/>
<path d="M0 0 C5.3015322 3.16744085 9.27157128 7.85198729 12.0625 13.3125 C13.31635993 20.41770628 13.73620348 27.23382601 10.02734375 33.6484375 C6.23076287 38.66119331 1.65545782 42.58528491 -4.375 44.5 C-12.36889812 45.58960079 -18.58534024 44.89708669 -25.28125 40.27734375 C-30.6220949 35.74360414 -33.66610773 30.46224586 -34.6640625 23.4765625 C-35.10156237 16.91406441 -32.98843362 11.9154084 -29.375 6.5 C-27.47165968 4.36193139 -25.80183728 3.13440062 -23.375 1.5 C-22.529375 0.901875 -21.68375 0.30375 -20.8125 -0.3125 C-14.2583382 -2.57666498 -6.44516359 -2.83234728 0 0 Z " fill="#44C253" transform="translate(1010.375,1165.5)"/>
<path d="M0 0 C4.45583679 2.91621839 8.53665341 7.48736932 10.921875 12.2578125 C10.921875 15.8878125 10.921875 19.5178125 10.921875 23.2578125 C-0.958125 23.2578125 -12.838125 23.2578125 -25.078125 23.2578125 C-21.57625748 31.30053091 -21.57625748 31.30053091 -15.078125 35.2578125 C-9.67717552 35.97002562 -4.14586109 36.47577297 0.546875 33.3203125 C1.330625 32.6396875 2.114375 31.9590625 2.921875 31.2578125 C3.581875 30.9278125 4.241875 30.5978125 4.921875 30.2578125 C5.581875 33.2278125 6.241875 36.1978125 6.921875 39.2578125 C-0.63332438 44.03310782 -7.18147186 45.48650628 -16.078125 44.2578125 C-22.85201573 42.21039858 -27.71757319 37.82261668 -31.390625 31.8203125 C-34.34346114 25.44267051 -34.50242374 17.40600054 -32.23046875 10.7890625 C-25.65553285 -0.80065502 -12.285929 -5.22913507 0 0 Z " fill="#44C354" transform="translate(1125.078125,1165.7421875)"/>
<path d="M0 0 C2.7732518 1.5918968 5.14611343 3.42329619 7.5859375 5.484375 C6.9259375 9.114375 6.2659375 12.744375 5.5859375 16.484375 C4.8846875 15.741875 4.1834375 14.999375 3.4609375 14.234375 C-2.53580184 8.49836346 -8.39258145 5.54955006 -16.7265625 5.109375 C-23.25059882 5.3201857 -28.85664355 7.19593333 -33.75390625 11.578125 C-40.52700355 18.92687433 -42.07675234 24.71910055 -41.79296875 34.67578125 C-41.12093308 41.43077897 -38.56127803 46.87380491 -33.4765625 51.421875 C-25.46296195 56.81878965 -18.97141273 57.44624965 -9.4140625 56.484375 C-6.31814966 55.47066903 -4.19412703 54.24864672 -1.4140625 52.484375 C-0.4240625 52.154375 0.5659375 51.824375 1.5859375 51.484375 C2.28531282 50.16790381 2.95322883 48.83415349 3.5859375 47.484375 C4.2459375 47.154375 4.9059375 46.824375 5.5859375 46.484375 C7.21941648 50.61611596 7.99000668 53.21867911 6.5859375 57.484375 C4.73046875 59.21484375 4.73046875 59.21484375 2.3984375 60.671875 C1.64175781 61.16042969 0.88507813 61.64898438 0.10546875 62.15234375 C-8.62280958 66.76682888 -20.04370382 67.27254586 -29.53125 64.609375 C-32.03685642 63.42291962 -34.17521831 62.11565181 -36.4140625 60.484375 C-37.12820313 59.9996875 -37.84234375 59.515 -38.578125 59.015625 C-45.34123037 53.84830854 -48.76556095 46.42987964 -51.4140625 38.484375 C-52.30151177 26.48198739 -51.1955509 17.69495599 -43.3515625 8.234375 C-31.45799917 -4.29035587 -15.49530872 -7.03148463 0 0 Z " fill="#44C153" transform="translate(1418.4140625,1144.515625)"/>
<path d="M0 0 C3.94457565 1.99420213 7.54552708 4.46302798 11.109375 7.06640625 C10.99527907 8.52563318 10.86771956 9.98381223 10.734375 11.44140625 C10.66476562 12.25351563 10.59515625 13.065625 10.5234375 13.90234375 C10.109375 16.06640625 10.109375 16.06640625 8.109375 18.06640625 C7.449375 17.15890625 6.789375 16.25140625 6.109375 15.31640625 C1.76190619 10.07714897 -4.46394532 7.61003358 -11.1171875 6.79296875 C-18.81483613 6.46700969 -24.97561504 8.52229197 -30.74609375 13.74609375 C-37.02541973 20.72312262 -38.50564229 26.99424241 -38.3046875 36.29296875 C-37.56608602 43.02399734 -35.02882058 48.46390413 -29.953125 53.00390625 C-21.92080325 58.41342906 -15.46379583 58.99085408 -5.890625 58.06640625 C-0.29551219 56.48960173 3.20169274 53.31888401 7.109375 49.06640625 C7.769375 48.73640625 8.429375 48.40640625 9.109375 48.06640625 C10.70826985 52.11066968 11.7461093 54.92001269 10.109375 59.06640625 C4.60107451 64.93008096 -2.99568109 67.22319662 -10.85009766 67.49291992 C-22.37496154 67.55312643 -30.49181285 65.22796382 -38.890625 57.06640625 C-46.16194072 48.385184 -48.54026694 39.72521964 -48.2265625 28.4921875 C-47.25511543 18.58568653 -42.27960793 11.56110986 -34.890625 5.06640625 C-24.21500499 -1.96040371 -12.35601637 -4.8076981 0 0 Z " fill="#44C253" transform="translate(955.890625,1142.93359375)"/>
<path d="M0 0 C2.64 0 5.28 0 8 0 C8.33 10.56 8.66 21.12 9 32 C10.32 30.68 11.64 29.36 13 28 C17.42137999 25.20334398 21.93159047 25.50120414 27 26 C32.52100602 27.80494428 35.63130553 31.44622735 39 36 C40.50606515 39.01213029 40.12160331 42.11282622 40.09765625 45.4140625 C40.0962413 46.14370209 40.09482635 46.87334167 40.09336853 47.62509155 C40.08776531 49.95843585 40.07521235 52.29168464 40.0625 54.625 C40.05748541 56.20572778 40.05292243 57.78645707 40.04882812 59.3671875 C40.03779484 63.24482854 40.02052811 67.12239807 40 71 C37.36 71 34.72 71 32 71 C31.99589111 70.12263184 31.99178223 69.24526367 31.98754883 68.34130859 C31.96046651 65.06413123 31.91128102 61.78879541 31.84741211 58.51220703 C31.82431474 57.09826063 31.80985581 55.68414421 31.80444336 54.27001953 C32.11566439 45.19568116 32.11566439 45.19568116 28.79296875 37.08203125 C24.83208939 34.12937573 22.38648974 34.21080244 17.6015625 34.46875 C13.81749727 35.24147203 12.1760488 36.88099672 10 40 C8.8992924 43.3021228 8.79372928 45.94083279 8.68359375 49.41796875 C8.64169922 50.67158203 8.59980469 51.92519531 8.55664062 53.21679688 C8.51732422 54.52712891 8.47800781 55.83746094 8.4375 57.1875 C8.39429008 58.52279978 8.350675 59.85808652 8.30664062 61.19335938 C8.20043498 64.46213297 8.09839003 67.73098333 8 71 C5.36 71 2.72 71 0 71 C0 47.57 0 24.14 0 0 Z " fill="#44C153" transform="translate(1438,1138)"/>
<path d="M0 0 C2.10714789 2.10714789 2.47664159 3.03225275 3.3046875 5.8046875 C3.55275146 6.60285889 3.80081543 7.40103027 4.05639648 8.22338867 C4.32653564 9.09842041 4.5966748 9.97345215 4.875 10.875 C8.26913192 21.52888187 12.58035093 31.71496716 17.08740234 41.93115234 C17.59352051 43.08180176 18.09963867 44.23245117 18.62109375 45.41796875 C19.0792749 46.44688232 19.53745605 47.4757959 20.00952148 48.53588867 C21 51 21 51 21 53 C7.8 53 -5.4 53 -19 53 C-18.14914569 48.74572846 -17.08666035 45.509535 -15.41796875 41.5546875 C-15.16251785 40.94416534 -14.90706696 40.33364319 -14.64387512 39.70462036 C-13.82943946 37.75954999 -13.00895891 35.8171135 -12.1875 33.875 C-5.08840001 17.28117837 -5.08840001 17.28117837 0 0 Z " fill="#1B2138" transform="translate(991,914)"/>
<path d="M0 0 C5.07863543 2.26362037 8.10741641 5.4850271 10.73828125 10.3515625 C11.9177021 13.88982505 11.85117314 16.69304976 11.8359375 20.42578125 C11.83452255 21.1096138 11.8331076 21.79344635 11.83164978 22.4980011 C11.82606001 24.67839972 11.81350947 26.85869501 11.80078125 29.0390625 C11.79576492 30.51887872 11.79120225 31.99869656 11.78710938 33.47851562 C11.77609396 37.10289807 11.75883637 40.7272202 11.73828125 44.3515625 C9.09828125 44.3515625 6.45828125 44.3515625 3.73828125 44.3515625 C3.72893555 43.54001709 3.71958984 42.72847168 3.70996094 41.89233398 C3.65604895 38.19064203 3.57243926 34.4901853 3.48828125 30.7890625 C3.47410156 29.51224609 3.45992187 28.23542969 3.4453125 26.91992188 C3.26453441 19.95996543 3.0981947 14.93257953 -1.26171875 9.3515625 C-4.9589725 7.50293562 -9.22633317 7.87569156 -13.26171875 8.3515625 C-16.1959507 10.14803104 -17.7337723 11.2956696 -19.26171875 14.3515625 C-19.41667638 16.60130411 -19.51182803 18.85527786 -19.578125 21.109375 C-19.5989061 21.77242645 -19.61968719 22.43547791 -19.64109802 23.11862183 C-19.70651106 25.23782944 -19.7654398 27.3571615 -19.82421875 29.4765625 C-19.86741184 30.91277331 -19.91102639 32.34897152 -19.95507812 33.78515625 C-20.06218374 37.30715844 -20.1634745 40.82930075 -20.26171875 44.3515625 C-22.90171875 44.3515625 -25.54171875 44.3515625 -28.26171875 44.3515625 C-28.26171875 29.8315625 -28.26171875 15.3115625 -28.26171875 0.3515625 C-25.95171875 0.3515625 -23.64171875 0.3515625 -21.26171875 0.3515625 C-20.93171875 2.0015625 -20.60171875 3.6515625 -20.26171875 5.3515625 C-19.31296875 4.5471875 -18.36421875 3.7428125 -17.38671875 2.9140625 C-12.20277627 -1.48101917 -6.55608835 -1.87963846 0 0 Z " fill="#44C254" transform="translate(1260.26171875,1164.6484375)"/>
<path d="M0 0 C3.0873973 2.46991784 5.41669843 5.20839687 7.1875 8.75 C7.77856487 14.43331608 7.45993416 18.89777003 4.1875 23.75 C-0.93493876 28.37268864 -4.19257847 29.16991061 -10.98046875 29.08984375 C-15.30322391 28.57111313 -17.94775492 26.99018175 -20.8125 23.75 C-23.5275102 19.02062739 -24.57298086 15.16842616 -23.8125 9.75 C-21.68598012 4.72196189 -18.72665044 0.74884934 -13.7734375 -1.6953125 C-8.97849393 -3.05165112 -4.45250745 -1.9788922 0 0 Z " fill="#1A1F37" transform="translate(1007.8125,1173.25)"/>
<path d="M0 0 C4.26443189 3.76856771 6.36470533 7.15578662 7.1875 12.8125 C6.36458645 18.67575904 4.3669971 22.73646625 0.125 26.875 C-4.76635442 29.0094092 -9.05716141 29.12688153 -14.3125 28.375 C-19.26718308 26.21295647 -21.49465975 23.26894426 -23.6171875 18.453125 C-24.90911275 14.59186527 -25.09067917 11.34749694 -23.58203125 7.5234375 C-18.43403332 -2.35231362 -9.84226395 -4.82828043 0 0 Z " fill="#1B2037" transform="translate(1202.3125,1173.625)"/>
<path d="M0 0 C3.57548545 2.38964605 7.05196574 5.10393149 9 9 C9.40045268 13.78232917 9.6379928 18.36957396 7.875 22.875 C7.25625 23.57625 6.6375 24.2775 6 25 C5.195625 25.928125 4.39125 26.85625 3.5625 27.8125 C-0.27243092 30.82292077 -4.36189028 30.75209021 -9.08203125 30.55859375 C-13.56362079 29.70067233 -16.25716361 27.58046906 -19 24 C-21.72045515 19.53330675 -21.65228556 15.08943798 -21 10 C-16.58980582 1.17961163 -9.51359294 -2.80352256 0 0 Z " fill="#1A1E37" transform="translate(1313,1172)"/>
<path d="M0 0 C3.5601965 3.051597 5.34372394 5.01020912 5.94140625 9.76953125 C6.21234176 16.15836544 5.54819143 20.16045436 1.625 25.25 C-3.74863408 29.16481245 -8.94399463 29.16498044 -15.375 28.25 C-19.34263571 26.51319448 -21.13729788 23.66994041 -23.25 19.9375 C-24.80199221 14.85041443 -25.73883402 10.86518688 -23.23828125 6.0703125 C-17.11481476 -2.70504892 -9.58378098 -4.96936792 0 0 Z " fill="#1A1F37" transform="translate(1065.375,1173.75)"/>
<path d="M0 0 C2.64 0 5.28 0 8 0 C8 23.43 8 46.86 8 71 C5.36 71 2.72 71 0 71 C0 47.57 0 24.14 0 0 Z " fill="#45C654" transform="translate(1542,1138)"/>
<path d="M0 0 C2.64 0 5.28 0 8 0 C8 23.43 8 46.86 8 71 C5.36 71 2.72 71 0 71 C0 47.57 0 24.14 0 0 Z " fill="#44C354" transform="translate(1518,1138)"/>
<path d="M0 0 C2.64 0 5.28 0 8 0 C8 14.52 8 29.04 8 44 C5.36 44 2.72 44 0 44 C0 29.48 0 14.96 0 0 Z " fill="#44C053" transform="translate(1494,1165)"/>
<path d="M0 0 C2.33809759 1.81066627 3.42933573 3.14400359 5.125 5.6875 C5.125 7.0075 5.125 8.3275 5.125 9.6875 C-4.115 9.6875 -13.355 9.6875 -22.875 9.6875 C-21.74020376 4.01351881 -21.74020376 4.01351881 -19.0625 1.4375 C-18.56105469 0.93734375 -18.05960938 0.4371875 -17.54296875 -0.078125 C-12.40183379 -3.88280567 -5.08568657 -3.53556081 0 0 Z " fill="#1C2638" transform="translate(1122.875,1173.3125)"/>
<path d="M0 0 C3.625 0.375 3.625 0.375 7 1 C7.625 3.8125 7.625 3.8125 8 7 C7.01 8.485 7.01 8.485 6 10 C2.5 10.375 2.5 10.375 -1 10 C-3 7 -3 7 -2.75 4.4375 C-2 2 -2 2 0 0 Z " fill="#43BF53" transform="translate(1495,1146)"/>
</svg>
