{
  "accessors": [
    {
      "bufferView": 2,
      "componentType": 5126,
      "count": 65532,
      "max": [
        0.8964930176734924,
        0.8368189930915833,
        0.9485999941825867
      ],
      "min": [
        -0.9346399903297424,
        -0.8391249775886536,
        -0.8072180151939392
      ],
      "type": "VEC3"
    },
    {
      "bufferView": 2,
      "byteOffset": 786384,
      "componentType": 5126,
      "count": 65532,
      "max": [
        0.9999991655349731,
        0.9998568296432495,
        0.9999879598617554
      ],
      "min": [
        -0.9999525547027588,
        -0.9999985694885254,
        -0.9999779462814331
      ],
      "type": "VEC3"
    },
    {
      "bufferView": 1,
      "componentType": 5126,
      "count": 65532,
      "max": [
        0.9997599720954895,
        0.9998260140419006
      ],
      "min": [
        7.999999979801942e-06,
        0.0036349892616271973
      ],
      "type": "VEC2"
    },
    {
      "bufferView": 1,
      "byteOffset": 524256,
      "componentType": 5126,
      "count": 65532,
      "max": [
        0.9997599720954895,
        0.9998260140419006
      ],
      "min": [
        7.999999979801942e-06,
        0.0036349892616271973
      ],
      "type": "VEC2"
    },
    {
      "bufferView": 1,
      "byteOffset": 1048512,
      "componentType": 5126,
      "count": 65532,
      "max": [
        0.9997599720954895,
        0.9998260140419006
      ],
      "min": [
        7.999999979801942e-06,
        0.0036349892616271973
      ],
      "type": "VEC2"
    },
    {
      "bufferView": 1,
      "byteOffset": 1572768,
      "componentType": 5126,
      "count": 65532,
      "max": [
        0.9997599720954895,
        0.9998260140419006
      ],
      "min": [
        7.999999979801942e-06,
        0.0036349892616271973
      ],
      "type": "VEC2"
    },
    {
      "bufferView": 0,
      "componentType": 5125,
      "count": 344616,
      "type": "SCALAR"
    },
    {
      "bufferView": 2,
      "byteOffset": 1572768,
      "componentType": 5126,
      "count": 65532,
      "max": [
        0.9352489709854126,
        0.7681040167808533,
        0.36993101239204407
      ],
      "min": [
        -0.9367939829826355,
        -0.8290330171585083,
        -0.949908971786499
      ],
      "type": "VEC3"
    },
    {
      "bufferView": 2,
      "byteOffset": 2359152,
      "componentType": 5126,
      "count": 65532,
      "max": [
        0.9999805688858032,
        0.9999995827674866,
        0.9999966621398926
      ],
      "min": [
        -0.9999692440032959,
        -0.9999779462814331,
        -0.9999498128890991
      ],
      "type": "VEC3"
    },
    {
      "bufferView": 1,
      "byteOffset": 2097024,
      "componentType": 5126,
      "count": 65532,
      "max": [
        0.9999470114707947,
        0.9999309778213501
      ],
      "min": [
        1.4999999621068127e-05,
        0.002178013324737549
      ],
      "type": "VEC2"
    },
    {
      "bufferView": 1,
      "byteOffset": 2621280,
      "componentType": 5126,
      "count": 65532,
      "max": [
        0.9999470114707947,
        0.9999309778213501
      ],
      "min": [
        1.4999999621068127e-05,
        0.002178013324737549
      ],
      "type": "VEC2"
    },
    {
      "bufferView": 1,
      "byteOffset": 3145536,
      "componentType": 5126,
      "count": 65532,
      "max": [
        0.9999470114707947,
        0.9999309778213501
      ],
      "min": [
        1.4999999621068127e-05,
        0.002178013324737549
      ],
      "type": "VEC2"
    },
    {
      "bufferView": 1,
      "byteOffset": 3669792,
      "componentType": 5126,
      "count": 65532,
      "max": [
        0.9999470114707947,
        0.9999309778213501
      ],
      "min": [
        1.4999999621068127e-05,
        0.002178013324737549
      ],
      "type": "VEC2"
    },
    {
      "bufferView": 0,
      "byteOffset": 1378464,
      "componentType": 5125,
      "count": 341265,
      "type": "SCALAR"
    },
    {
      "bufferView": 2,
      "byteOffset": 3145536,
      "componentType": 5126,
      "count": 50164,
      "max": [
        0.9329289793968201,
        0.7797319889068604,
        0.528892993927002
      ],
      "min": [
        -0.9380220174789429,
        -0.8330240249633789,
        -0.4990270137786865
      ],
      "type": "VEC3"
    },
    {
      "bufferView": 2,
      "byteOffset": 3747504,
      "componentType": 5126,
      "count": 50164,
      "max": [
        0.9998112320899963,
        0.9999663829803467,
        0.9999092817306519
      ],
      "min": [
        -0.999967098236084,
        -0.9999880194664001,
        -0.9999873638153076
      ],
      "type": "VEC3"
    },
    {
      "bufferView": 1,
      "byteOffset": 4194048,
      "componentType": 5126,
      "count": 50164,
      "max": [
        0.9999600052833557,
        0.9988539814949036
      ],
      "min": [
        8.600000001024455e-05,
        0.0022079944610595703
      ],
      "type": "VEC2"
    },
    {
      "bufferView": 1,
      "byteOffset": 4595360,
      "componentType": 5126,
      "count": 50164,
      "max": [
        0.9999600052833557,
        0.9988539814949036
      ],
      "min": [
        8.600000001024455e-05,
        0.0022079944610595703
      ],
      "type": "VEC2"
    },
    {
      "bufferView": 1,
      "byteOffset": 4996672,
      "componentType": 5126,
      "count": 50164,
      "max": [
        0.9999600052833557,
        0.9988539814949036
      ],
      "min": [
        8.600000001024455e-05,
        0.0022079944610595703
      ],
      "type": "VEC2"
    },
    {
      "bufferView": 1,
      "byteOffset": 5397984,
      "componentType": 5126,
      "count": 50164,
      "max": [
        0.9999600052833557,
        0.9988539814949036
      ],
      "min": [
        8.600000001024455e-05,
        0.0022079944610595703
      ],
      "type": "VEC2"
    },
    {
      "bufferView": 0,
      "byteOffset": 2743524,
      "componentType": 5125,
      "count": 252321,
      "type": "SCALAR"
    }
  ],
  "asset": {
    "extras": {
      "author": "Zizian1987 (https://sketchfab.com/493caf85284a49b4a090c9c6eb1935)",
      "license": "CC-BY-4.0 (http://creativecommons.org/licenses/by/4.0/)",
      "source": "https://sketchfab.com/3d-models/robotyczny-biao-zoty-spiderman-2181c78daa0040caafe3e9a9a81a81e1",
      "title": "robotyczny biało złoty spiderman"
    },
    "generator": "Sketchfab-16.99.0",
    "version": "2.0"
  },
  "bufferViews": [
    {
      "buffer": 0,
      "byteLength": 3752808,
      "name": "floatBufferViews",
      "target": 34963
    },
    {
      "buffer": 0,
      "byteLength": 5799296,
      "byteOffset": 3752808,
      "byteStride": 8,
      "name": "floatBufferViews",
      "target": 34962
    },
    {
      "buffer": 0,
      "byteLength": 4349472,
      "byteOffset": 9552104,
      "byteStride": 12,
      "name": "floatBufferViews",
      "target": 34962
    }
  ],
  "buffers": [
    {
      "byteLength": 13901576,
      "uri": "scene.bin"
    }
  ],
  "images": [
    {
      "uri": "textures/material_0_baseColor.jpeg"
    },
    {
      "uri": "textures/material_0_metallicRoughness.png"
    }
  ],
  "materials": [
    {
      "doubleSided": true,
      "name": "material_0",
      "pbrMetallicRoughness": {
        "baseColorTexture": {
          "index": 0
        },
        "metallicRoughnessTexture": {
          "index": 1,
          "texCoord": 1
        }
      }
    }
  ],
  "meshes": [
    {
      "name": "Object_0",
      "primitives": [
        {
          "attributes": {
            "NORMAL": 1,
            "POSITION": 0,
            "TEXCOORD_0": 2,
            "TEXCOORD_1": 3,
            "TEXCOORD_2": 4,
            "TEXCOORD_3": 5
          },
          "indices": 6,
          "material": 0,
          "mode": 4
        }
      ]
    },
    {
      "name": "Object_1",
      "primitives": [
        {
          "attributes": {
            "NORMAL": 8,
            "POSITION": 7,
            "TEXCOORD_0": 9,
            "TEXCOORD_1": 10,
            "TEXCOORD_2": 11,
            "TEXCOORD_3": 12
          },
          "indices": 13,
          "material": 0,
          "mode": 4
        }
      ]
    },
    {
      "name": "Object_2",
      "primitives": [
        {
          "attributes": {
            "NORMAL": 15,
            "POSITION": 14,
            "TEXCOORD_0": 16,
            "TEXCOORD_1": 17,
            "TEXCOORD_2": 18,
            "TEXCOORD_3": 19
          },
          "indices": 20,
          "material": 0,
          "mode": 4
        }
      ]
    }
  ],
  "nodes": [
    {
      "children": [
        1
      ],
      "matrix": [
        1.0,
        0.0,
        0.0,
        0.0,
        0.0,
        2.220446049250313e-16,
        -1.0,
        0.0,
        0.0,
        1.0,
        2.220446049250313e-16,
        0.0,
        0.0,
        0.0,
        0.0,
        1.0
      ],
      "name": "Sketchfab_model"
    },
    {
      "children": [
        2
      ],
      "name": "root"
    },
    {
      "children": [
        3
      ],
      "matrix": [
        1.0,
        0.0,
        0.0,
        0.0,
        0.0,
        2.220446049250313e-16,
        1.0,
        0.0,
        0.0,
        -1.0,
        2.220446049250313e-16,
        0.0,
        0.0,
        0.0,
        0.0,
        1.0
      ],
      "name": "GLTF_SceneRootNode"
    },
    {
      "children": [
        4,
        5,
        6
      ],
      "name": "_0"
    },
    {
      "mesh": 0,
      "name": "Object_4"
    },
    {
      "mesh": 1,
      "name": "Object_5"
    },
    {
      "mesh": 2,
      "name": "Object_6"
    }
  ],
  "samplers": [
    {
      "magFilter": 9729,
      "minFilter": 9987,
      "wrapS": 10497,
      "wrapT": 10497
    }
  ],
  "scene": 0,
  "scenes": [
    {
      "name": "Sketchfab_Scene",
      "nodes": [
        0
      ]
    }
  ],
  "textures": [
    {
      "sampler": 0,
      "source": 0
    },
    {
      "sampler": 0,
      "source": 1
    }
  ]
}
